<?xml version="1.0" encoding="UTF-8" standalone="no"?>
<svg width="60px" height="60px" viewBox="0 0 60 60" version="1.1" xmlns="http://www.w3.org/2000/svg" xmlns:xlink="http://www.w3.org/1999/xlink" xmlns:sketch="http://www.bohemiancoding.com/sketch/ns">
    <!-- Generator: Sketch 3.2.2 (9983) - http://www.bohemiancoding.com/sketch -->
    <title>Datawork</title>
    <desc>Created with Sketch.</desc>
    <defs></defs>
    <g id="stroked" stroke="none" stroke-width="1" fill="none" fill-rule="evenodd" sketch:type="MSPage">
        <g id="Tech" sketch:type="MSLayerGroup" transform="translate(-478.000000, -489.000000)" stroke="#535353" stroke-width="2" stroke-linecap="round" stroke-linejoin="round">
            <g id="Datawork" transform="translate(480.000000, 491.000000)" sketch:type="MSShapeGroup">
                <path d="M7.48522021,51.3432069 L6.63392094,52.1945062 C5.85404211,52.974385 4.59410576,52.9788821 3.80761184,52.1923882 C3.02656326,51.4113396 3.0262439,50.145329 3.80549382,49.3660791 L4.65679308,48.5147798 C3.96161448,47.4651688 3.45920267,46.2767493 3.20003623,45 L1.99700466,45 C0.89408944,45 5.43577634e-17,44.1122704 1.2246468e-16,43 C1.90100055e-16,41.8954305 0.894978851,41 1.99700466,41 L3.20003623,41 C3.45920267,39.7232507 3.96161448,38.5348312 4.65679308,37.4852202 L3.80549382,36.6339209 C3.02561499,35.8540421 3.02111793,34.5941058 3.80761184,33.8076118 C4.58866043,33.0265633 5.85467102,33.0262439 6.63392094,33.8054938 L7.48522021,34.6567931 C8.53483121,33.9616145 9.72325067,33.4592027 11,33.2000362 L11,31.9970047 C11,30.8940894 11.8877296,30 13,30 C14.1045695,30 15,30.8949789 15,31.9970047 L15,33.2000362 C16.2767493,33.4592027 17.4651688,33.9616145 18.5147798,34.6567931 L19.3660791,33.8054938 C20.1459579,33.025615 21.4058942,33.0211179 22.1923882,33.8076118 C22.9734367,34.5886604 22.9737561,35.854671 22.1945062,36.6339209 L21.3432069,37.4852202 C22.0383855,38.5348312 22.5407973,39.7232507 22.7999638,41 L24.0029953,41 C25.1059106,41 26,41.8877296 26,43 C26,44.1045695 25.1050211,45 24.0029953,45 L22.7999638,45 C22.5407973,46.2767493 22.0383855,47.4651688 21.3432069,48.5147798 L22.1945062,49.3660791 C22.974385,50.1459579 22.9788821,51.4058942 22.1923882,52.1923882 C21.4113396,52.9734367 20.145329,52.9737561 19.3660791,52.1945062 L18.5147798,51.3432069 C17.4651688,52.0383855 16.2767493,52.5407973 15,52.7999638 L15,54.0029953 C15,55.1059106 14.1122704,56 13,56 C11.8954305,56 11,55.1050211 11,54.0029953 L11,52.7999638 C9.72325067,52.5407973 8.53483121,52.0383855 7.48522021,51.3432069 L7.48522021,51.3432069 Z M13,46 C14.6568542,46 16,44.6568542 16,43 C16,41.3431458 14.6568542,40 13,40 C11.3431458,40 10,41.3431458 10,43 C10,44.6568542 11.3431458,46 13,46 Z" id="Rectangle-354"></path>
                <path d="M35.7692534,40.6327649 L34.8736852,41.528333 C34.0532515,42.3487668 32.7277965,42.3534977 31.9004037,41.5261049 C31.0787393,40.7044405 31.0784034,39.3725954 31.8981755,38.5528233 L32.7937437,37.6572552 C32.0624147,36.5530627 31.5338767,35.3028436 31.2612332,33.9597013 L29.9956421,33.9597013 C28.8353736,33.9597013 27.8947901,33.0258084 27.8947901,31.8556982 C27.8947901,30.6936894 28.8363092,29.7516951 29.9956421,29.7516951 L31.2612332,29.7516951 C31.5338767,28.4085528 32.0624147,27.1583337 32.7937437,26.0541413 L31.8981755,25.1585732 C31.0777418,24.3381394 31.0730109,23.0126844 31.9004037,22.1852916 C32.722068,21.3636273 34.0539131,21.3632913 34.8736852,22.1830634 L35.7692534,23.0786316 C36.8734458,22.3473026 38.1236649,21.8187646 39.4668072,21.5461211 L39.4668072,20.28053 C39.4668072,19.1202615 40.4007002,18.179678 41.5708103,18.179678 C42.7328191,18.179678 43.6748134,19.1211971 43.6748134,20.28053 L43.6748134,21.5461211 C45.0179557,21.8187646 46.2681748,22.3473026 47.3723672,23.0786316 L48.2679354,22.1830634 C49.0883691,21.3626297 50.4138241,21.3578988 51.241217,22.1852916 C52.0628813,23.0069559 52.0632173,24.338801 51.2434451,25.1585732 L50.347877,26.0541413 C51.0792059,27.1583337 51.607744,28.4085528 51.8803874,29.7516951 L53.1459785,29.7516951 C54.3062471,29.7516951 55.2468305,30.6855881 55.2468305,31.8556982 C55.2468305,33.0177071 54.3053114,33.9597013 53.1459785,33.9597013 L51.8803874,33.9597013 C51.607744,35.3028436 51.0792059,36.5530627 50.347877,37.6572552 L51.2434451,38.5528233 C52.0638789,39.373257 52.0686098,40.6987121 51.241217,41.5261049 C50.4195526,42.3477692 49.0877075,42.3481052 48.2679354,41.528333 L47.3723672,40.6327649 C46.2681748,41.3640939 45.0179557,41.8926319 43.6748134,42.1652754 L43.6748134,43.4308664 C43.6748134,44.591135 42.7409205,45.5317185 41.5708103,45.5317185 C40.4088015,45.5317185 39.4668072,44.5901993 39.4668072,43.4308664 L39.4668072,42.1652754 C38.1236649,41.8926319 36.8734458,41.3640939 35.7692534,40.6327649 L35.7692534,40.6327649 Z M41.5708103,35.0117029 C43.3138236,35.0117029 44.726815,33.5987115 44.726815,31.8556982 C44.726815,30.112685 43.3138236,28.6996936 41.5708103,28.6996936 C39.8277971,28.6996936 38.4148056,30.112685 38.4148056,31.8556982 C38.4148056,33.5987115 39.8277971,35.0117029 41.5708103,35.0117029 Z" id="Rectangle-354" transform="translate(41.570810, 31.855698) rotate(-14.000000) translate(-41.570810, -31.855698) "></path>
                <path d="M12.856751,22.5365335 L12.1364208,23.2568637 C11.4765234,23.9167611 10.4104234,23.9205663 9.74492851,23.2550715 C9.08404125,22.5941842 9.08377102,21.5229445 9.74313634,20.8635792 L10.4634665,20.143249 C9.87523844,19.2551166 9.45012075,18.2495309 9.23082607,17.1692046 L8.21287628,17.1692046 C7.27964033,17.1692046 6.52310311,16.4180487 6.52310311,15.4768969 C6.52310311,14.5422612 7.2803929,13.7845892 8.21287628,13.7845892 L9.23082607,13.7845892 C9.45012075,12.7042628 9.87523844,11.6986771 10.4634665,10.8105448 L9.74313634,10.0902146 C9.08323887,9.43031714 9.07943367,8.36421715 9.74492851,7.6987223 C10.4058158,7.03783504 11.4770555,7.0375648 12.1364208,7.69693012 L12.856751,8.41726027 C13.7448834,7.82903222 14.7504691,7.40391453 15.8307954,7.18461986 L15.8307954,6.16667006 C15.8307954,5.23343411 16.5819513,4.47689689 17.5231031,4.47689689 C18.4577388,4.47689689 19.2154108,5.23418669 19.2154108,6.16667006 L19.2154108,7.18461986 C20.2957372,7.40391453 21.3013229,7.82903222 22.1894552,8.41726027 L22.9097854,7.69693012 C23.5696829,7.03703265 24.6357829,7.03322745 25.3012777,7.6987223 C25.962165,8.35960956 25.9624352,9.43084929 25.3030699,10.0902146 L24.5827397,10.8105448 C25.1709678,11.6986771 25.5960855,12.7042628 25.8153801,13.7845892 L26.8333299,13.7845892 C27.7665659,13.7845892 28.5231031,14.5357451 28.5231031,15.4768969 C28.5231031,16.4115326 27.7658133,17.1692046 26.8333299,17.1692046 L25.8153801,17.1692046 C25.5960855,18.2495309 25.1709678,19.2551166 24.5827397,20.143249 L25.3030699,20.8635792 C25.9629673,21.5234766 25.9667725,22.5895766 25.3012777,23.2550715 C24.6403904,23.9159587 23.5691507,23.916229 22.9097854,23.2568637 L22.1894552,22.5365335 C21.3013229,23.1247616 20.2957372,23.5498793 19.2154108,23.7691739 L19.2154108,24.7871237 C19.2154108,25.7203597 18.4642549,26.4768969 17.5231031,26.4768969 C16.5884674,26.4768969 15.8307954,25.7196071 15.8307954,24.7871237 L15.8307954,23.7691739 C14.7504691,23.5498793 13.7448834,23.1247616 12.856751,22.5365335 L12.856751,22.5365335 Z M17.5231031,18.0153584 C18.9250567,18.0153584 20.0615646,16.8788505 20.0615646,15.4768969 C20.0615646,14.0749433 18.9250567,12.9384354 17.5231031,12.9384354 C16.1211495,12.9384354 14.9846416,14.0749433 14.9846416,15.4768969 C14.9846416,16.8788505 16.1211495,18.0153584 17.5231031,18.0153584 Z" id="Rectangle-354" transform="translate(17.523103, 15.476897) rotate(-54.000000) translate(-17.523103, -15.476897) "></path>
            </g>
        </g>
    </g>
</svg>