<?xml version="1.0" encoding="iso-8859-1"?>
<!DOCTYPE svg PUBLIC "-//W3C//DTD SVG 1.1//EN" "http://www.w3.org/Graphics/SVG/1.1/DTD/svg11.dtd">
<svg 
 version="1.1" xmlns="http://www.w3.org/2000/svg" xmlns:xlink="http://www.w3.org/1999/xlink" x="0px" y="0px" width="512px"
	 height="512px" viewBox="0 0 512 512" enable-background="new 0 0 512 512" xml:space="preserve"
><g id="5151e0c8492e5103c096af88a528db77"><g></g><path display="inline" d="M337.432,0.5L1.246,48.306v370.557L169.339,511.5l341.415-49.309V94.629L337.432,0.5z M485.278,115.259
		l-0.727-5.867l0.727,0.393V115.259z M172.571,129.305L56.197,66.224l273.592-38.905v16.579h15.285v-10.26l111.619,60.624
		L172.571,129.305z M41.798,400.175l-15.076,2.185V79.225l129.879,70.401v325.766l-112.922-62.23L41.798,400.175z M479.342,440.985
		l3.374-6.255L460.29,422.64l-7.254,13.454l12.718,6.856l-283.677,40.97v-88.626l13.183-1.911l-2.189-15.126l-10.994,1.592V153.8
		l147.712-18.216v10.215h15.285v-12.101l140.204-17.295v323.726L479.342,440.985z M92.224,392.87l2.189,15.126l-25.214,3.652
		l-2.189-15.126L92.224,392.87z M338.835,357.141l9.344,5.04l-7.254,13.454l-4.896-2.643l-14.708,2.13l-2.189-15.126
		L338.835,357.141z M144.836,400.692l-25.212,3.652l-2.189-15.126l25.211-3.652L144.836,400.692z M415.45,398.458l22.42,12.091
		l-7.255,13.454l-22.42-12.091L415.45,398.458z M243.496,370.953l2.189,15.125l-25.212,3.652l-2.189-15.126L243.496,370.953z
		 M293.92,363.648l2.188,15.126l-25.211,3.652l-2.189-15.126L293.92,363.648z M370.6,374.271l22.425,12.091l-7.254,13.454
		l-22.426-12.091L370.6,374.271z M329.789,69.373h15.285v25.476h-15.285V69.373z M345.074,298.651h-15.285v-25.476h15.285V298.651z
		 M345.074,349.603h-15.285v-25.476h15.285V349.603z M345.074,196.75h-15.285v-25.476h15.285V196.75z M345.074,247.701h-15.285
		v-25.476h15.285V247.701z"></path></g></svg>