<?xml version="1.0" encoding="UTF-8" standalone="no"?>
<svg width="60px" height="60px" viewBox="0 0 60 60" version="1.1" xmlns="http://www.w3.org/2000/svg" xmlns:xlink="http://www.w3.org/1999/xlink" xmlns:sketch="http://www.bohemiancoding.com/sketch/ns">
    <!-- Generator: Sketch 3.2.2 (9983) - http://www.bohemiancoding.com/sketch -->
    <title>Solars</title>
    <desc>Created with Sketch.</desc>
    <defs></defs>
    <g id="stroked" stroke="none" stroke-width="1" fill="none" fill-rule="evenodd" sketch:type="MSPage">
        <g id="Activities" sketch:type="MSLayerGroup" transform="translate(-614.000000, -1798.000000)" stroke="#535353" stroke-width="2" stroke-linejoin="round">
            <g id="Solars" transform="translate(617.000000, 1800.000000)" sketch:type="MSShapeGroup">
                <path d="M0,50 L53.0102043,50" id="Line" stroke-linecap="round"></path>
                <path d="M14,22 L30,22 L23,42 L7,42 L14,22 Z" id="Rectangle-1270" stroke-linecap="round"></path>
                <path d="M39,22 L55,22 L48,42 L32,42 L39,22 Z" id="Rectangle-1270" stroke-linecap="round"></path>
                <path d="M7,22 L23,22 L16,42 L0,42 L7,22 Z" id="Rectangle-1270" stroke-linecap="round"></path>
                <path d="M32,22 L48,22 L41,42 L25,42 L32,22 Z" id="Rectangle-1270" stroke-linecap="round"></path>
                <path d="M5,31 L25,31" id="Line" stroke-linecap="round"></path>
                <path d="M30,31 L50,31" id="Line" stroke-linecap="round"></path>
                <path d="M6,41 L6,49.0622578" id="Line" stroke-linecap="square"></path>
                <path d="M18,41 L18,49.0622578" id="Line" stroke-linecap="square"></path>
                <path d="M31,41 L31,49.0622578" id="Line" stroke-linecap="square"></path>
                <path d="M43,41 L43,49.0622578" id="Line" stroke-linecap="square"></path>
                <circle id="Oval-1038" stroke-linecap="round" cx="6" cy="5" r="5"></circle>
                <path d="M14,5 L18,5" id="Line" stroke-linecap="round"></path>
                <path d="M6,13 L6,17" id="Line" stroke-linecap="round"></path>
                <path d="M12.5857864,11.5857864 L15.4142136,14.4142136" id="Line-282" stroke-linecap="round"></path>
            </g>
        </g>
    </g>
</svg>